<?xml version="1.0" encoding="UTF-8"?>
<!DOCTYPE svg PUBLIC "-//W3C//DTD SVG 1.1//EN" "http://www.w3.org/Graphics/SVG/1.1/DTD/svg11.dtd">
<svg version="1.1" xmlns="http://www.w3.org/2000/svg" xmlns:xlink="http://www.w3.org/1999/xlink" x="0px" y="0px" width="1200" height="900" viewBox="0, 0, 1200, 900">
  <g id="Background">
    <rect x="0" y="0" width="1200" height="900" fill="#000000" fill-opacity="0"/>
  </g>
  <g id="Layer 1">
    <path d="M100.5,50.5 L100.5,550.5" fill-opacity="0" stroke="#006CA9" stroke-width="2" stroke-dasharray="12,10"/>
    <path d="M150.5,50.5 L150.5,550.5" fill-opacity="0" stroke="#006CA9" stroke-width="2" stroke-dasharray="12,10"/>
    <path d="M200.5,50.5 L200.5,550.5" fill-opacity="0" stroke="#006CA9" stroke-width="2" stroke-dasharray="12,10"/>
    <path d="M250.5,50.5 L250.5,550.5" fill-opacity="0" stroke="#006CA9" stroke-width="2" stroke-dasharray="12,10"/>
    <path d="M300.5,50.5 L300.5,550.5" fill-opacity="0" stroke="#006CA9" stroke-width="2" stroke-dasharray="12,10"/>
    <path d="M350.5,50.5 L350.5,550.5" fill-opacity="0" stroke="#006CA9" stroke-width="2" stroke-dasharray="12,10"/>
    <path d="M400.5,50.5 L400.5,550.5" fill-opacity="0" stroke="#006CA9" stroke-width="2" stroke-dasharray="12,10"/>
    <path d="M450.5,50.5 L450.5,550.5" fill-opacity="0" stroke="#006CA9" stroke-width="2" stroke-dasharray="12,10"/>
    <path d="M500.5,50.5 L500.5,550.5" fill-opacity="0" stroke="#006CA9" stroke-width="2" stroke-dasharray="12,10"/>
    <path d="M50.5,500.5 L550.5,500.5" fill-opacity="0" stroke="#006CA9" stroke-width="2" stroke-dasharray="12,10"/>
    <path d="M50.5,450.5 L550.5,450.5" fill-opacity="0" stroke="#006CA9" stroke-width="2" stroke-dasharray="12,10"/>
    <path d="M50.5,400.5 L550.5,400.5" fill-opacity="0" stroke="#006CA9" stroke-width="2" stroke-dasharray="12,10"/>
    <path d="M50.5,350.5 L550.5,350.5" fill-opacity="0" stroke="#006CA9" stroke-width="2" stroke-dasharray="12,10"/>
    <path d="M50.5,300.5 L550.5,300.5" fill-opacity="0" stroke="#006CA9" stroke-width="2" stroke-dasharray="12,10"/>
    <path d="M50.5,250.5 L550.5,250.5" fill-opacity="0" stroke="#006CA9" stroke-width="2" stroke-dasharray="12,10"/>
    <path d="M50.5,200.5 L550.5,200.5" fill-opacity="0" stroke="#006CA9" stroke-width="2" stroke-dasharray="12,10"/>
    <path d="M50.5,150.5 L550.5,150.5" fill-opacity="0" stroke="#006CA9" stroke-width="2" stroke-dasharray="12,10"/>
    <path d="M50.5,100.5 L550.5,100.5" fill-opacity="0" stroke="#006CA9" stroke-width="2" stroke-dasharray="12,10"/>
    <path d="M150.5,150.5 L450.5,450.5" fill-opacity="0" stroke="#F0801A" stroke-width="6"/>
    <path d="M200.5,400.5 L450.5,150.5" fill-opacity="0" stroke="#F0801A" stroke-width="6"/>
    <g>
      <path d="M200.5,419.25 C190.145,419.25 181.75,410.855 181.75,400.5 C181.75,390.145 190.145,381.75 200.5,381.75 C210.855,381.75 219.25,390.145 219.25,400.5 C219.25,410.855 210.855,419.25 200.5,419.25 z" fill="#006CA9"/>
      <path d="M200.5,419.25 C190.145,419.25 181.75,410.855 181.75,400.5 C181.75,390.145 190.145,381.75 200.5,381.75 C210.855,381.75 219.25,390.145 219.25,400.5 C219.25,410.855 210.855,419.25 200.5,419.25 z" fill-opacity="0" stroke="#006CA9" stroke-width="1"/>
    </g>
    <path d="M700.5,50.5 L700.5,550.5" fill-opacity="0" stroke="#006CA9" stroke-width="2" stroke-dasharray="12,10"/>
    <path d="M750.5,50.5 L750.5,550.5" fill-opacity="0" stroke="#006CA9" stroke-width="2" stroke-dasharray="12,10"/>
    <path d="M800.5,50.5 L800.5,550.5" fill-opacity="0" stroke="#006CA9" stroke-width="2" stroke-dasharray="12,10"/>
    <path d="M850.5,50.5 L850.5,550.5" fill-opacity="0" stroke="#006CA9" stroke-width="2" stroke-dasharray="12,10"/>
    <path d="M900.5,50.5 L900.5,550.5" fill-opacity="0" stroke="#006CA9" stroke-width="2" stroke-dasharray="12,10"/>
    <path d="M950.5,50.5 L950.5,550.5" fill-opacity="0" stroke="#006CA9" stroke-width="2" stroke-dasharray="12,10"/>
    <path d="M1000.5,50.5 L1000.5,550.5" fill-opacity="0" stroke="#006CA9" stroke-width="2" stroke-dasharray="12,10"/>
    <path d="M1050.5,50.5 L1050.5,550.5" fill-opacity="0" stroke="#006CA9" stroke-width="2" stroke-dasharray="12,10"/>
    <path d="M1100.5,50.5 L1100.5,550.5" fill-opacity="0" stroke="#006CA9" stroke-width="2" stroke-dasharray="12,10"/>
    <path d="M650.5,500.5 L1150.5,500.5" fill-opacity="0" stroke="#006CA9" stroke-width="2" stroke-dasharray="12,10"/>
    <path d="M650.5,450.5 L1150.5,450.5" fill-opacity="0" stroke="#006CA9" stroke-width="2" stroke-dasharray="12,10"/>
    <path d="M650.5,400.5 L1150.5,400.5" fill-opacity="0" stroke="#006CA9" stroke-width="2" stroke-dasharray="12,10"/>
    <path d="M650.5,350.5 L1150.5,350.5" fill-opacity="0" stroke="#006CA9" stroke-width="2" stroke-dasharray="12,10"/>
    <path d="M650.5,300.5 L1150.5,300.5" fill-opacity="0" stroke="#006CA9" stroke-width="2" stroke-dasharray="12,10"/>
    <path d="M650.5,250.5 L1150.5,250.5" fill-opacity="0" stroke="#006CA9" stroke-width="2" stroke-dasharray="12,10"/>
    <path d="M650.5,200.5 L1150.5,200.5" fill-opacity="0" stroke="#006CA9" stroke-width="2" stroke-dasharray="12,10"/>
    <path d="M650.5,150.5 L1150.5,150.5" fill-opacity="0" stroke="#006CA9" stroke-width="2" stroke-dasharray="12,10"/>
    <path d="M650.5,100.5 L1150.5,100.5" fill-opacity="0" stroke="#006CA9" stroke-width="2" stroke-dasharray="12,10"/>
    <path d="M750.5,150.5 L1100.5,150.5" fill-opacity="0" stroke="#F0801A" stroke-width="6"/>
    <path d="M750.5,300.5 L1000.5,300.5" fill-opacity="0" stroke="#F0801A" stroke-width="6"/>
    <path d="M750.5,450.5 L1100.5,450.5" fill-opacity="0" stroke="#F0801A" stroke-width="6"/>
    <path d="M750.5,150.5 L750.5,450.5" fill-opacity="0" stroke="#F0801A" stroke-width="6"/>
    <path d="M900.5,450.5 L1100.5,150.5" fill-opacity="0" stroke="#F0801A" stroke-width="6"/>
    <g>
      <path d="M1050.5,469.25 C1040.145,469.25 1031.75,460.855 1031.75,450.5 C1031.75,440.145 1040.145,431.75 1050.5,431.75 C1060.855,431.75 1069.25,440.145 1069.25,450.5 C1069.25,460.855 1060.855,469.25 1050.5,469.25 z" fill="#006CA9"/>
      <path d="M1050.5,469.25 C1040.145,469.25 1031.75,460.855 1031.75,450.5 C1031.75,440.145 1040.145,431.75 1050.5,431.75 C1060.855,431.75 1069.25,440.145 1069.25,450.5 C1069.25,460.855 1060.855,469.25 1050.5,469.25 z" fill-opacity="0" stroke="#006CA9" stroke-width="1"/>
    </g>
    <g>
      <path d="M900.5,469.25 C890.145,469.25 881.75,460.855 881.75,450.5 C881.75,440.145 890.145,431.75 900.5,431.75 C910.855,431.75 919.25,440.145 919.25,450.5 C919.25,460.855 910.855,469.25 900.5,469.25 z" fill="#006CA9"/>
      <path d="M900.5,469.25 C890.145,469.25 881.75,460.855 881.75,450.5 C881.75,440.145 890.145,431.75 900.5,431.75 C910.855,431.75 919.25,440.145 919.25,450.5 C919.25,460.855 910.855,469.25 900.5,469.25 z" fill-opacity="0" stroke="#006CA9" stroke-width="1"/>
    </g>
    <g>
      <path d="M1100.5,169.25 C1090.145,169.25 1081.75,160.855 1081.75,150.5 C1081.75,140.145 1090.145,131.75 1100.5,131.75 C1110.855,131.75 1119.25,140.145 1119.25,150.5 C1119.25,160.855 1110.855,169.25 1100.5,169.25 z" fill="#006CA9"/>
      <path d="M1100.5,169.25 C1090.145,169.25 1081.75,160.855 1081.75,150.5 C1081.75,140.145 1090.145,131.75 1100.5,131.75 C1110.855,131.75 1119.25,140.145 1119.25,150.5 C1119.25,160.855 1110.855,169.25 1100.5,169.25 z" fill-opacity="0" stroke="#006CA9" stroke-width="1"/>
    </g>
    <g>
      <path d="M750.5,169.25 C740.145,169.25 731.75,160.855 731.75,150.5 C731.75,140.145 740.145,131.75 750.5,131.75 C760.855,131.75 769.25,140.145 769.25,150.5 C769.25,160.855 760.855,169.25 750.5,169.25 z" fill="#006CA9"/>
      <path d="M750.5,169.25 C740.145,169.25 731.75,160.855 731.75,150.5 C731.75,140.145 740.145,131.75 750.5,131.75 C760.855,131.75 769.25,140.145 769.25,150.5 C769.25,160.855 760.855,169.25 750.5,169.25 z" fill-opacity="0" stroke="#006CA9" stroke-width="1"/>
    </g>
    <g>
      <path d="M750.5,319.25 C740.145,319.25 731.75,310.855 731.75,300.5 C731.75,290.145 740.145,281.75 750.5,281.75 C760.855,281.75 769.25,290.145 769.25,300.5 C769.25,310.855 760.855,319.25 750.5,319.25 z" fill="#006CA9"/>
      <path d="M750.5,319.25 C740.145,319.25 731.75,310.855 731.75,300.5 C731.75,290.145 740.145,281.75 750.5,281.75 C760.855,281.75 769.25,290.145 769.25,300.5 C769.25,310.855 760.855,319.25 750.5,319.25 z" fill-opacity="0" stroke="#006CA9" stroke-width="1"/>
    </g>
    <g>
      <path d="M750.5,469.25 C740.145,469.25 731.75,460.855 731.75,450.5 C731.75,440.145 740.145,431.75 750.5,431.75 C760.855,431.75 769.25,440.145 769.25,450.5 C769.25,460.855 760.855,469.25 750.5,469.25 z" fill="#006CA9"/>
      <path d="M750.5,469.25 C740.145,469.25 731.75,460.855 731.75,450.5 C731.75,440.145 740.145,431.75 750.5,431.75 C760.855,431.75 769.25,440.145 769.25,450.5 C769.25,460.855 760.855,469.25 750.5,469.25 z" fill-opacity="0" stroke="#006CA9" stroke-width="1"/>
    </g>
    <g>
      <path d="M450.5,469.25 C440.145,469.25 431.75,460.855 431.75,450.5 C431.75,440.145 440.145,431.75 450.5,431.75 C460.855,431.75 469.25,440.145 469.25,450.5 C469.25,460.855 460.855,469.25 450.5,469.25 z" fill="#006CA9"/>
      <path d="M450.5,469.25 C440.145,469.25 431.75,460.855 431.75,450.5 C431.75,440.145 440.145,431.75 450.5,431.75 C460.855,431.75 469.25,440.145 469.25,450.5 C469.25,460.855 460.855,469.25 450.5,469.25 z" fill-opacity="0" stroke="#006CA9" stroke-width="1"/>
    </g>
    <g>
      <path d="M450.5,169.25 C440.145,169.25 431.75,160.855 431.75,150.5 C431.75,140.145 440.145,131.75 450.5,131.75 C460.855,131.75 469.25,140.145 469.25,150.5 C469.25,160.855 460.855,169.25 450.5,169.25 z" fill="#006CA9"/>
      <path d="M450.5,169.25 C440.145,169.25 431.75,160.855 431.75,150.5 C431.75,140.145 440.145,131.75 450.5,131.75 C460.855,131.75 469.25,140.145 469.25,150.5 C469.25,160.855 460.855,169.25 450.5,169.25 z" fill-opacity="0" stroke="#006CA9" stroke-width="1"/>
    </g>
    <g>
      <path d="M300.5,319.25 C290.145,319.25 281.75,310.855 281.75,300.5 C281.75,290.145 290.145,281.75 300.5,281.75 C310.855,281.75 319.25,290.145 319.25,300.5 C319.25,310.855 310.855,319.25 300.5,319.25 z" fill="#006CA9"/>
      <path d="M300.5,319.25 C290.145,319.25 281.75,310.855 281.75,300.5 C281.75,290.145 290.145,281.75 300.5,281.75 C310.855,281.75 319.25,290.145 319.25,300.5 C319.25,310.855 310.855,319.25 300.5,319.25 z" fill-opacity="0" stroke="#006CA9" stroke-width="1"/>
    </g>
    <g>
      <path d="M150.5,169.25 C140.145,169.25 131.75,160.855 131.75,150.5 C131.75,140.145 140.145,131.75 150.5,131.75 C160.855,131.75 169.25,140.145 169.25,150.5 C169.25,160.855 160.855,169.25 150.5,169.25 z" fill="#006CA9"/>
      <path d="M150.5,169.25 C140.145,169.25 131.75,160.855 131.75,150.5 C131.75,140.145 140.145,131.75 150.5,131.75 C160.855,131.75 169.25,140.145 169.25,150.5 C169.25,160.855 160.855,169.25 150.5,169.25 z" fill-opacity="0" stroke="#006CA9" stroke-width="1"/>
    </g>
    <g>
      <path d="M850.5,169.25 C840.145,169.25 831.75,160.855 831.75,150.5 C831.75,140.145 840.145,131.75 850.5,131.75 C860.855,131.75 869.25,140.145 869.25,150.5 C869.25,160.855 860.855,169.25 850.5,169.25 z" fill="#006CA9"/>
      <path d="M850.5,169.25 C840.145,169.25 831.75,160.855 831.75,150.5 C831.75,140.145 840.145,131.75 850.5,131.75 C860.855,131.75 869.25,140.145 869.25,150.5 C869.25,160.855 860.855,169.25 850.5,169.25 z" fill-opacity="0" stroke="#006CA9" stroke-width="1"/>
    </g>
    <g>
      <path d="M1000.5,469.25 C990.145,469.25 981.75,460.855 981.75,450.5 C981.75,440.145 990.145,431.75 1000.5,431.75 C1010.855,431.75 1019.25,440.145 1019.25,450.5 C1019.25,460.855 1010.855,469.25 1000.5,469.25 z" fill="#006CA9"/>
      <path d="M1000.5,469.25 C990.145,469.25 981.75,460.855 981.75,450.5 C981.75,440.145 990.145,431.75 1000.5,431.75 C1010.855,431.75 1019.25,440.145 1019.25,450.5 C1019.25,460.855 1010.855,469.25 1000.5,469.25 z" fill-opacity="0" stroke="#006CA9" stroke-width="1"/>
    </g>
    <g>
      <path d="M850.5,319.25 C840.145,319.25 831.75,310.855 831.75,300.5 C831.75,290.145 840.145,281.75 850.5,281.75 C860.855,281.75 869.25,290.145 869.25,300.5 C869.25,310.855 860.855,319.25 850.5,319.25 z" fill="#006CA9"/>
      <path d="M850.5,319.25 C840.145,319.25 831.75,310.855 831.75,300.5 C831.75,290.145 840.145,281.75 850.5,281.75 C860.855,281.75 869.25,290.145 869.25,300.5 C869.25,310.855 860.855,319.25 850.5,319.25 z" fill-opacity="0" stroke="#006CA9" stroke-width="1"/>
    </g>
    <path d="M1100.5,450.5 L900.5,150.5" fill-opacity="0" stroke="#F0801A" stroke-width="6"/>
    <g>
      <path d="M1100.5,469.25 C1090.145,469.25 1081.75,460.855 1081.75,450.5 C1081.75,440.145 1090.145,431.75 1100.5,431.75 C1110.855,431.75 1119.25,440.145 1119.25,450.5 C1119.25,460.855 1110.855,469.25 1100.5,469.25 z" fill="#006CA9"/>
      <path d="M1100.5,469.25 C1090.145,469.25 1081.75,460.855 1081.75,450.5 C1081.75,440.145 1090.145,431.75 1100.5,431.75 C1110.855,431.75 1119.25,440.145 1119.25,450.5 C1119.25,460.855 1110.855,469.25 1100.5,469.25 z" fill-opacity="0" stroke="#006CA9" stroke-width="1"/>
    </g>
    <g>
      <path d="M1000.5,319.25 C990.145,319.25 981.75,310.855 981.75,300.5 C981.75,290.145 990.145,281.75 1000.5,281.75 C1010.855,281.75 1019.25,290.145 1019.25,300.5 C1019.25,310.855 1010.855,319.25 1000.5,319.25 z" fill="#006CA9"/>
      <path d="M1000.5,319.25 C990.145,319.25 981.75,310.855 981.75,300.5 C981.75,290.145 990.145,281.75 1000.5,281.75 C1010.855,281.75 1019.25,290.145 1019.25,300.5 C1019.25,310.855 1010.855,319.25 1000.5,319.25 z" fill-opacity="0" stroke="#006CA9" stroke-width="1"/>
    </g>
    <g>
      <path d="M900.5,169.25 C890.145,169.25 881.75,160.855 881.75,150.5 C881.75,140.145 890.145,131.75 900.5,131.75 C910.855,131.75 919.25,140.145 919.25,150.5 C919.25,160.855 910.855,169.25 900.5,169.25 z" fill="#006CA9"/>
      <path d="M900.5,169.25 C890.145,169.25 881.75,160.855 881.75,150.5 C881.75,140.145 890.145,131.75 900.5,131.75 C910.855,131.75 919.25,140.145 919.25,150.5 C919.25,160.855 910.855,169.25 900.5,169.25 z" fill-opacity="0" stroke="#006CA9" stroke-width="1"/>
    </g>
    <text transform="matrix(1, 0, 0, 1, 350, 638.5)">
      <tspan x="-199.107" y="-52.5" font-family="Verdana-Bold" font-size="36" fill="#294270">checkio([</tspan>
      <tspan x="-199.107" y="-8.5" font-family="Verdana-Bold" font-size="36" fill="#294270">    [3,3],[5,5],[8,8],</tspan>
      <tspan x="-199.107" y="35.5" font-family="Verdana-Bold" font-size="36" fill="#294270">    [2,8],[8,2]])</tspan>
      <tspan x="-199.107" y="79.5" font-family="Verdana-Bold" font-size="36" fill="#294270">    </tspan>
    </text>
    <text transform="matrix(1, 0, 0, 1, 234.946, 732.5)">
      <tspan x="-84.946" y="13.5" font-family="Verdana-Bold" font-size="36" fill="#294270">result: 2</tspan>
    </text>
    <text transform="matrix(1, 0, 0, 1, 965, 665)">
      <tspan x="-215" y="-79" font-family="Verdana-Bold" font-size="36" fill="#294270">checkio([</tspan>
      <tspan x="-215" y="-35" font-family="Verdana-Bold" font-size="36" fill="#294270">    [2,2],[2,5],[2,8],</tspan>
      <tspan x="-215" y="9" font-family="Verdana-Bold" font-size="36" fill="#294270">    [5,2],[7,2],[8,2],</tspan>
      <tspan x="-215" y="53" font-family="Verdana-Bold" font-size="36" fill="#294270">    [9,2],[4,5],[4,8],</tspan>
      <tspan x="-215" y="97" font-family="Verdana-Bold" font-size="36" fill="#294270">    [7,5],[5,8],[9,9]])</tspan>
    </text>
    <text transform="matrix(1, 0, 0, 1, 834.946, 822.5)">
      <tspan x="-84.946" y="13.5" font-family="Verdana-Bold" font-size="36" fill="#294270">result: 6</tspan>
    </text>
  </g>
  <defs/>
</svg>
