<?xml version="1.0" encoding="UTF-8"?>
<!DOCTYPE svg PUBLIC "-//W3C//DTD SVG 1.1//EN" "http://www.w3.org/Graphics/SVG/1.1/DTD/svg11.dtd">
<svg version="1.1" xmlns="http://www.w3.org/2000/svg" xmlns:xlink="http://www.w3.org/1999/xlink" x="0px" y="0px" width="1200" height="900" viewBox="0, 0, 1200, 900">
  <g id="Background">
    <rect x="0" y="0" width="1200" height="900" fill="#000000" fill-opacity="0"/>
  </g>
  <g id="Layer 1">
    <path d="M99.607,550.5 L99.607,50.5" fill-opacity="0" stroke="#006CA9" stroke-width="1" stroke-dasharray="6,5"/>
    <path d="M149.607,550.5 L149.607,50.5" fill-opacity="0" stroke="#006CA9" stroke-width="1" stroke-dasharray="6,5"/>
    <path d="M199.607,550.5 L199.607,50.5" fill-opacity="0" stroke="#006CA9" stroke-width="1" stroke-dasharray="6,5"/>
    <path d="M249.607,550.5 L249.607,50.5" fill-opacity="0" stroke="#006CA9" stroke-width="1" stroke-dasharray="6,5"/>
    <path d="M299.607,550.5 L299.607,50.5" fill-opacity="0" stroke="#006CA9" stroke-width="1" stroke-dasharray="6,5"/>
    <path d="M349.607,550.5 L349.607,50.5" fill-opacity="0" stroke="#006CA9" stroke-width="1" stroke-dasharray="6,5"/>
    <path d="M399.607,550.5 L399.607,50.5" fill-opacity="0" stroke="#006CA9" stroke-width="1" stroke-dasharray="6,5"/>
    <path d="M449.607,550.5 L449.607,50.5" fill-opacity="0" stroke="#006CA9" stroke-width="1" stroke-dasharray="6,5"/>
    <path d="M499.607,550.5 L499.607,50.5" fill-opacity="0" stroke="#006CA9" stroke-width="1" stroke-dasharray="6,5"/>
    <path d="M49.607,100.5 L549.607,100.5" fill-opacity="0" stroke="#006CA9" stroke-width="1" stroke-dasharray="6,5"/>
    <path d="M49.607,150.5 L549.607,150.5" fill-opacity="0" stroke="#006CA9" stroke-width="1" stroke-dasharray="6,5"/>
    <path d="M49.607,200.5 L549.607,200.5" fill-opacity="0" stroke="#006CA9" stroke-width="1" stroke-dasharray="6,5"/>
    <path d="M49.607,250.5 L549.607,250.5" fill-opacity="0" stroke="#006CA9" stroke-width="1" stroke-dasharray="6,5"/>
    <path d="M49.607,300.5 L549.607,300.5" fill-opacity="0" stroke="#006CA9" stroke-width="1" stroke-dasharray="6,5"/>
    <path d="M49.607,350.5 L549.607,350.5" fill-opacity="0" stroke="#006CA9" stroke-width="1" stroke-dasharray="6,5"/>
    <path d="M49.607,400.5 L549.607,400.5" fill-opacity="0" stroke="#006CA9" stroke-width="1" stroke-dasharray="6,5"/>
    <path d="M49.607,450.5 L549.607,450.5" fill-opacity="0" stroke="#006CA9" stroke-width="1" stroke-dasharray="6,5"/>
    <path d="M49.607,500.5 L549.607,500.5" fill-opacity="0" stroke="#006CA9" stroke-width="1" stroke-dasharray="6,5"/>
    <path d="M149.607,450.5 L449.607,150.5" fill-opacity="0" stroke="#F0801A" stroke-width="6"/>
    <path d="M199.607,200.5 L449.607,450.5" fill-opacity="0" stroke="#F0801A" stroke-width="6"/>
    <g>
      <path d="M199.607,181.75 C189.252,181.75 180.857,190.145 180.857,200.5 C180.857,210.855 189.252,219.25 199.607,219.25 C209.963,219.25 218.357,210.855 218.357,200.5 C218.357,190.145 209.963,181.75 199.607,181.75 z" fill="#006CA9"/>
      <path d="M199.607,181.75 C189.252,181.75 180.857,190.145 180.857,200.5 C180.857,210.855 189.252,219.25 199.607,219.25 C209.963,219.25 218.357,210.855 218.357,200.5 C218.357,190.145 209.963,181.75 199.607,181.75 z" fill-opacity="0" stroke="#006CA9" stroke-width="1"/>
    </g>
    <path d="M700.5,550.5 L700.5,50.5" fill-opacity="0" stroke="#006CA9" stroke-width="1" stroke-dasharray="6,5"/>
    <path d="M750.5,550.5 L750.5,50.5" fill-opacity="0" stroke="#006CA9" stroke-width="1" stroke-dasharray="6,5"/>
    <path d="M800.5,550.5 L800.5,50.5" fill-opacity="0" stroke="#006CA9" stroke-width="1" stroke-dasharray="6,5"/>
    <path d="M850.5,550.5 L850.5,50.5" fill-opacity="0" stroke="#006CA9" stroke-width="1" stroke-dasharray="6,5"/>
    <path d="M900.5,550.5 L900.5,50.5" fill-opacity="0" stroke="#006CA9" stroke-width="1" stroke-dasharray="6,5"/>
    <path d="M950.5,550.5 L950.5,50.5" fill-opacity="0" stroke="#006CA9" stroke-width="1" stroke-dasharray="6,5"/>
    <path d="M1000.5,550.5 L1000.5,50.5" fill-opacity="0" stroke="#006CA9" stroke-width="1" stroke-dasharray="6,5"/>
    <path d="M1050.5,550.5 L1050.5,50.5" fill-opacity="0" stroke="#006CA9" stroke-width="1" stroke-dasharray="6,5"/>
    <path d="M1100.5,550.5 L1100.5,50.5" fill-opacity="0" stroke="#006CA9" stroke-width="1" stroke-dasharray="6,5"/>
    <path d="M650.5,100.5 L1150.5,100.5" fill-opacity="0" stroke="#006CA9" stroke-width="1" stroke-dasharray="6,5"/>
    <path d="M650.5,150.5 L1150.5,150.5" fill-opacity="0" stroke="#006CA9" stroke-width="1" stroke-dasharray="6,5"/>
    <path d="M650.5,200.5 L1150.5,200.5" fill-opacity="0" stroke="#006CA9" stroke-width="1" stroke-dasharray="6,5"/>
    <path d="M650.5,250.5 L1150.5,250.5" fill-opacity="0" stroke="#006CA9" stroke-width="1" stroke-dasharray="6,5"/>
    <path d="M650.5,300.5 L1150.5,300.5" fill-opacity="0" stroke="#006CA9" stroke-width="1" stroke-dasharray="6,5"/>
    <path d="M650.5,350.5 L1150.5,350.5" fill-opacity="0" stroke="#006CA9" stroke-width="1" stroke-dasharray="6,5"/>
    <path d="M650.5,400.5 L1150.5,400.5" fill-opacity="0" stroke="#006CA9" stroke-width="1" stroke-dasharray="6,5"/>
    <path d="M650.5,450.5 L1150.5,450.5" fill-opacity="0" stroke="#006CA9" stroke-width="1" stroke-dasharray="6,5"/>
    <path d="M650.5,500.5 L1150.5,500.5" fill-opacity="0" stroke="#006CA9" stroke-width="1" stroke-dasharray="6,5"/>
    <path d="M750.5,450.5 L1100.5,450.5" fill-opacity="0" stroke="#F0801A" stroke-width="6"/>
    <path d="M750.5,300.5 L1000.5,300.5" fill-opacity="0" stroke="#F0801A" stroke-width="6"/>
    <path d="M750.5,150.5 L1100.5,150.5" fill-opacity="0" stroke="#F0801A" stroke-width="6"/>
    <path d="M750.5,450.5 L750.5,150.5" fill-opacity="0" stroke="#F0801A" stroke-width="6"/>
    <path d="M900.5,150.5 L1100.5,450.5" fill-opacity="0" stroke="#F0801A" stroke-width="6"/>
    <g>
      <path d="M1050.5,131.75 C1040.145,131.75 1031.75,140.145 1031.75,150.5 C1031.75,160.855 1040.145,169.25 1050.5,169.25 C1060.855,169.25 1069.25,160.855 1069.25,150.5 C1069.25,140.145 1060.855,131.75 1050.5,131.75 z" fill="#006CA9"/>
      <path d="M1050.5,131.75 C1040.145,131.75 1031.75,140.145 1031.75,150.5 C1031.75,160.855 1040.145,169.25 1050.5,169.25 C1060.855,169.25 1069.25,160.855 1069.25,150.5 C1069.25,140.145 1060.855,131.75 1050.5,131.75 z" fill-opacity="0" stroke="#006CA9" stroke-width="1"/>
    </g>
    <g>
      <path d="M900.5,131.75 C890.145,131.75 881.75,140.145 881.75,150.5 C881.75,160.855 890.145,169.25 900.5,169.25 C910.855,169.25 919.25,160.855 919.25,150.5 C919.25,140.145 910.855,131.75 900.5,131.75 z" fill="#006CA9"/>
      <path d="M900.5,131.75 C890.145,131.75 881.75,140.145 881.75,150.5 C881.75,160.855 890.145,169.25 900.5,169.25 C910.855,169.25 919.25,160.855 919.25,150.5 C919.25,140.145 910.855,131.75 900.5,131.75 z" fill-opacity="0" stroke="#006CA9" stroke-width="1"/>
    </g>
    <g>
      <path d="M1100.5,431.75 C1090.145,431.75 1081.75,440.145 1081.75,450.5 C1081.75,460.855 1090.145,469.25 1100.5,469.25 C1110.855,469.25 1119.25,460.855 1119.25,450.5 C1119.25,440.145 1110.855,431.75 1100.5,431.75 z" fill="#006CA9"/>
      <path d="M1100.5,431.75 C1090.145,431.75 1081.75,440.145 1081.75,450.5 C1081.75,460.855 1090.145,469.25 1100.5,469.25 C1110.855,469.25 1119.25,460.855 1119.25,450.5 C1119.25,440.145 1110.855,431.75 1100.5,431.75 z" fill-opacity="0" stroke="#006CA9" stroke-width="1"/>
    </g>
    <g>
      <path d="M750.5,431.75 C740.145,431.75 731.75,440.145 731.75,450.5 C731.75,460.855 740.145,469.25 750.5,469.25 C760.855,469.25 769.25,460.855 769.25,450.5 C769.25,440.145 760.855,431.75 750.5,431.75 z" fill="#006CA9"/>
      <path d="M750.5,431.75 C740.145,431.75 731.75,440.145 731.75,450.5 C731.75,460.855 740.145,469.25 750.5,469.25 C760.855,469.25 769.25,460.855 769.25,450.5 C769.25,440.145 760.855,431.75 750.5,431.75 z" fill-opacity="0" stroke="#006CA9" stroke-width="1"/>
    </g>
    <g>
      <path d="M750.5,281.75 C740.145,281.75 731.75,290.145 731.75,300.5 C731.75,310.855 740.145,319.25 750.5,319.25 C760.855,319.25 769.25,310.855 769.25,300.5 C769.25,290.145 760.855,281.75 750.5,281.75 z" fill="#006CA9"/>
      <path d="M750.5,281.75 C740.145,281.75 731.75,290.145 731.75,300.5 C731.75,310.855 740.145,319.25 750.5,319.25 C760.855,319.25 769.25,310.855 769.25,300.5 C769.25,290.145 760.855,281.75 750.5,281.75 z" fill-opacity="0" stroke="#006CA9" stroke-width="1"/>
    </g>
    <g>
      <path d="M750.5,131.75 C740.145,131.75 731.75,140.145 731.75,150.5 C731.75,160.855 740.145,169.25 750.5,169.25 C760.855,169.25 769.25,160.855 769.25,150.5 C769.25,140.145 760.855,131.75 750.5,131.75 z" fill="#006CA9"/>
      <path d="M750.5,131.75 C740.145,131.75 731.75,140.145 731.75,150.5 C731.75,160.855 740.145,169.25 750.5,169.25 C760.855,169.25 769.25,160.855 769.25,150.5 C769.25,140.145 760.855,131.75 750.5,131.75 z" fill-opacity="0" stroke="#006CA9" stroke-width="1"/>
    </g>
    <g>
      <path d="M449.607,131.75 C439.252,131.75 430.857,140.145 430.857,150.5 C430.857,160.855 439.252,169.25 449.607,169.25 C459.963,169.25 468.357,160.855 468.357,150.5 C468.357,140.145 459.963,131.75 449.607,131.75 z" fill="#006CA9"/>
      <path d="M449.607,131.75 C439.252,131.75 430.857,140.145 430.857,150.5 C430.857,160.855 439.252,169.25 449.607,169.25 C459.963,169.25 468.357,160.855 468.357,150.5 C468.357,140.145 459.963,131.75 449.607,131.75 z" fill-opacity="0" stroke="#006CA9" stroke-width="1"/>
    </g>
    <g>
      <path d="M449.607,431.75 C439.252,431.75 430.857,440.145 430.857,450.5 C430.857,460.855 439.252,469.25 449.607,469.25 C459.963,469.25 468.357,460.855 468.357,450.5 C468.357,440.145 459.963,431.75 449.607,431.75 z" fill="#006CA9"/>
      <path d="M449.607,431.75 C439.252,431.75 430.857,440.145 430.857,450.5 C430.857,460.855 439.252,469.25 449.607,469.25 C459.963,469.25 468.357,460.855 468.357,450.5 C468.357,440.145 459.963,431.75 449.607,431.75 z" fill-opacity="0" stroke="#006CA9" stroke-width="1"/>
    </g>
    <g>
      <path d="M299.607,281.75 C289.252,281.75 280.857,290.145 280.857,300.5 C280.857,310.855 289.252,319.25 299.607,319.25 C309.963,319.25 318.357,310.855 318.357,300.5 C318.357,290.145 309.963,281.75 299.607,281.75 z" fill="#006CA9"/>
      <path d="M299.607,281.75 C289.252,281.75 280.857,290.145 280.857,300.5 C280.857,310.855 289.252,319.25 299.607,319.25 C309.963,319.25 318.357,310.855 318.357,300.5 C318.357,290.145 309.963,281.75 299.607,281.75 z" fill-opacity="0" stroke="#006CA9" stroke-width="1"/>
    </g>
    <g>
      <path d="M149.607,431.75 C139.252,431.75 130.857,440.145 130.857,450.5 C130.857,460.855 139.252,469.25 149.607,469.25 C159.963,469.25 168.357,460.855 168.357,450.5 C168.357,440.145 159.963,431.75 149.607,431.75 z" fill="#006CA9"/>
      <path d="M149.607,431.75 C139.252,431.75 130.857,440.145 130.857,450.5 C130.857,460.855 139.252,469.25 149.607,469.25 C159.963,469.25 168.357,460.855 168.357,450.5 C168.357,440.145 159.963,431.75 149.607,431.75 z" fill-opacity="0" stroke="#006CA9" stroke-width="1"/>
    </g>
    <g>
      <path d="M850.5,431.75 C840.145,431.75 831.75,440.145 831.75,450.5 C831.75,460.855 840.145,469.25 850.5,469.25 C860.855,469.25 869.25,460.855 869.25,450.5 C869.25,440.145 860.855,431.75 850.5,431.75 z" fill="#006CA9"/>
      <path d="M850.5,431.75 C840.145,431.75 831.75,440.145 831.75,450.5 C831.75,460.855 840.145,469.25 850.5,469.25 C860.855,469.25 869.25,460.855 869.25,450.5 C869.25,440.145 860.855,431.75 850.5,431.75 z" fill-opacity="0" stroke="#006CA9" stroke-width="1"/>
    </g>
    <g>
      <path d="M1000.5,131.75 C990.145,131.75 981.75,140.145 981.75,150.5 C981.75,160.855 990.145,169.25 1000.5,169.25 C1010.855,169.25 1019.25,160.855 1019.25,150.5 C1019.25,140.145 1010.855,131.75 1000.5,131.75 z" fill="#006CA9"/>
      <path d="M1000.5,131.75 C990.145,131.75 981.75,140.145 981.75,150.5 C981.75,160.855 990.145,169.25 1000.5,169.25 C1010.855,169.25 1019.25,160.855 1019.25,150.5 C1019.25,140.145 1010.855,131.75 1000.5,131.75 z" fill-opacity="0" stroke="#006CA9" stroke-width="1"/>
    </g>
    <g>
      <path d="M850.5,281.75 C840.145,281.75 831.75,290.145 831.75,300.5 C831.75,310.855 840.145,319.25 850.5,319.25 C860.855,319.25 869.25,310.855 869.25,300.5 C869.25,290.145 860.855,281.75 850.5,281.75 z" fill="#006CA9"/>
      <path d="M850.5,281.75 C840.145,281.75 831.75,290.145 831.75,300.5 C831.75,310.855 840.145,319.25 850.5,319.25 C860.855,319.25 869.25,310.855 869.25,300.5 C869.25,290.145 860.855,281.75 850.5,281.75 z" fill-opacity="0" stroke="#006CA9" stroke-width="1"/>
    </g>
    <path d="M1100.5,150.5 L900.5,450.5" fill-opacity="0" stroke="#F0801A" stroke-width="6"/>
    <g>
      <path d="M1100.5,131.75 C1090.145,131.75 1081.75,140.145 1081.75,150.5 C1081.75,160.855 1090.145,169.25 1100.5,169.25 C1110.855,169.25 1119.25,160.855 1119.25,150.5 C1119.25,140.145 1110.855,131.75 1100.5,131.75 z" fill="#006CA9"/>
      <path d="M1100.5,131.75 C1090.145,131.75 1081.75,140.145 1081.75,150.5 C1081.75,160.855 1090.145,169.25 1100.5,169.25 C1110.855,169.25 1119.25,160.855 1119.25,150.5 C1119.25,140.145 1110.855,131.75 1100.5,131.75 z" fill-opacity="0" stroke="#006CA9" stroke-width="1"/>
    </g>
    <g>
      <path d="M1000.5,281.75 C990.145,281.75 981.75,290.145 981.75,300.5 C981.75,310.855 990.145,319.25 1000.5,319.25 C1010.855,319.25 1019.25,310.855 1019.25,300.5 C1019.25,290.145 1010.855,281.75 1000.5,281.75 z" fill="#006CA9"/>
      <path d="M1000.5,281.75 C990.145,281.75 981.75,290.145 981.75,300.5 C981.75,310.855 990.145,319.25 1000.5,319.25 C1010.855,319.25 1019.25,310.855 1019.25,300.5 C1019.25,290.145 1010.855,281.75 1000.5,281.75 z" fill-opacity="0" stroke="#006CA9" stroke-width="1"/>
    </g>
    <g>
      <path d="M900.5,431.75 C890.145,431.75 881.75,440.145 881.75,450.5 C881.75,460.855 890.145,469.25 900.5,469.25 C910.855,469.25 919.25,460.855 919.25,450.5 C919.25,440.145 910.855,431.75 900.5,431.75 z" fill="#006CA9"/>
      <path d="M900.5,431.75 C890.145,431.75 881.75,440.145 881.75,450.5 C881.75,460.855 890.145,469.25 900.5,469.25 C910.855,469.25 919.25,460.855 919.25,450.5 C919.25,440.145 910.855,431.75 900.5,431.75 z" fill-opacity="0" stroke="#006CA9" stroke-width="1"/>
    </g>
    <text transform="matrix(1, 0, 0, 1, 350, 638.5)">
      <tspan x="-199.107" y="-52.5" font-family="Verdana-Bold" font-size="36" fill="#294270">checkio([</tspan>
      <tspan x="-199.107" y="-8.5" font-family="Verdana-Bold" font-size="36" fill="#294270">    [3,3],[5,5],[8,8],</tspan>
      <tspan x="-199.107" y="35.5" font-family="Verdana-Bold" font-size="36" fill="#294270">    [2,8],[8,2]])</tspan>
      <tspan x="-199.107" y="79.5" font-family="Verdana-Bold" font-size="36" fill="#294270">    </tspan>
    </text>
    <text transform="matrix(1, 0, 0, 1, 234.946, 732.5)">
      <tspan x="-84.946" y="13.5" font-family="Verdana-Bold" font-size="36" fill="#294270">result: 2</tspan>
    </text>
    <text transform="matrix(1, 0, 0, 1, 965, 682.5)">
      <tspan x="-215" y="-96.5" font-family="Verdana-Bold" font-size="36" fill="#294270">checkio([</tspan>
      <tspan x="-215" y="-52.5" font-family="Verdana-Bold" font-size="36" fill="#294270">    [2,2],[2,5],[2,8],</tspan>
      <tspan x="-215" y="-8.5" font-family="Verdana-Bold" font-size="36" fill="#294270">    [5,2],[7,2],[8,2],</tspan>
      <tspan x="-215" y="35.5" font-family="Verdana-Bold" font-size="36" fill="#294270">    [9,2],[4,5],[4,8],</tspan>
      <tspan x="-215" y="79.5" font-family="Verdana-Bold" font-size="36" fill="#294270">    [7,5],[5,8],[9,8]])</tspan>
      <tspan x="-215" y="123.5" font-family="Verdana-Bold" font-size="36" fill="#294270">    </tspan>
    </text>
    <text transform="matrix(1, 0, 0, 1, 834.946, 822.5)">
      <tspan x="-84.946" y="13.5" font-family="Verdana-Bold" font-size="36" fill="#294270">result: 6</tspan>
    </text>
  </g>
  <defs/>
</svg>
