<?xml version="1.0" encoding="UTF-8"?>
<!DOCTYPE svg PUBLIC "-//W3C//DTD SVG 1.1//EN" "http://www.w3.org/Graphics/SVG/1.1/DTD/svg11.dtd">
<svg version="1.1" xmlns="http://www.w3.org/2000/svg" xmlns:xlink="http://www.w3.org/1999/xlink" x="0px" y="0px" width="128" height="128" viewBox="0, 0, 128, 128">
  <g id="Background">
    <rect x="0" y="0" width="128" height="128" fill="#000000" fill-opacity="0"/>
  </g>
  <g id="Background">
    <path d="M18.093,6 L109.907,6 C116.561,6 122,11.439 122,18.093 L122,109.907 C122,116.561 116.561,122 109.907,122 L18.093,122 C11.439,122 6,116.561 6,109.907 L6,18.093 C6,11.439 11.439,6 18.093,6" fill="#727272"/>
    <path d="M40.225,9.535 C40.225,12.992 40.85,16.454 41.161,19.91 C41.937,28.438 45.522,36.319 49.651,43.718 C47.235,45.408 44.275,47.175 44.121,50.473 C43.887,56.181 48.016,62.133 53.697,62.858 C58.762,63.502 63.356,60.204 66.393,56.341 C69.197,52.885 69.974,47.417 67.251,43.718 C65.147,40.823 62.031,38.164 58.374,38.407 C55.648,38.49 53.465,40.421 51.441,42.107 C44.275,33.26 41.395,21.035 42.951,9.694 C42.252,9.617 40.924,9.535 40.225,9.535" fill="#84D0F4"/>
    <path d="M55.181,64.789 C61.722,64.466 66.863,59.402 70.056,53.848 C71.846,54.734 74.102,55.377 75.194,57.309 C82.702,71.878 50.289,67.43 42.951,68.969 C41.783,67.361 39.914,65.754 40.457,63.502 C41.084,61.411 42.874,60.045 44.353,58.598 C47.08,61.972 50.737,64.951 55.181,64.789" fill="#EBECEC"/>
    <path d="M79.787,62.457 C86.017,69.531 87.685,76.559 76.207,78.624 C68.732,79.906 61.173,79.267 53.62,79.505 C50.66,79.67 47.623,80.148 45.129,81.761 C43.107,83.045 42.174,85.378 41.084,87.469 C36.297,81.674 32.142,75.371 42.331,71.864 C54.127,68.439 75.495,75.436 79.787,62.457" fill="#84D0F4"/>
    <path d="M87.579,74.925 C89.448,77.176 91.397,79.906 90.616,83.045 C86.122,95.425 54.076,92.873 45.052,89.562 C45.208,85.697 48.094,82.642 51.83,82.4 C64.781,81.108 77.751,85.478 87.579,74.925" fill="#EBECEC"/>
    <path d="M59.465,117.392 L57.638,94.822 L63.004,95.073 L62.959,117.392 z" fill="#EBECEC"/>
    <path d="M53.56,117.392 L48.91,93.316 L54.78,94.521 L56.803,117.392 z" fill="#EBECEC"/>
    <path d="M69.297,117.392 L71.124,94.822 L65.758,95.073 L65.804,117.392 z" fill="#EBECEC"/>
    <path d="M75.207,117.392 L79.852,93.316 L73.984,94.521 L71.961,117.392 z" fill="#EBECEC"/>
    <path d="M80.752,117.392 L89.836,89.104 L82.761,92.863 L77.875,117.392 z" fill="#EBECEC"/>
    <path d="M48.011,117.392 L38.933,89.104 L46.002,92.863 L50.889,117.392 z" fill="#EBECEC"/>
    <path d="M54.789,43.234 C56.739,40.257 61.411,40.823 63.124,43.879 C61.018,46.289 55.725,47.093 54.789,43.234 z" fill="#737370"/>
  </g>
  <defs/>
</svg>
